<?xml version="1.0" standalone="no"?>
<!DOCTYPE svg PUBLIC "-//W3C//DTD SVG 20010904//EN"
 "http://www.w3.org/TR/2001/REC-SVG-20010904/DTD/svg10.dtd">
<svg version="1.0" xmlns="http://www.w3.org/2000/svg"
 width="250.000000pt" height="250.000000pt" viewBox="0 0 250.000000 250.000000"
 preserveAspectRatio="xMidYMid meet">
<metadata>
Created by potrace 1.14, written by Peter Selinger 2001-2017
</metadata>
<g transform="translate(0.000000,250.000000) scale(0.100000,-0.100000)"
fill="#000000" stroke="none">
<path d="M282 1945 c4 -521 6 -555 26 -641 24 -103 68 -227 108 -306 33 -65
109 -185 136 -215 l20 -22 -275 -276 c-157 -158 -273 -282 -270 -288 3 -7 50
-54 103 -105 l97 -93 277 277 276 277 69 -46 c129 -86 295 -157 436 -186 33
-7 77 -16 99 -21 21 -5 277 -9 570 -10 l531 -1 0 1101 c0 605 -2 1101 -5 1101
-3 1 -499 2 -1103 3 l-1099 1 4 -550z m1582 107 l-209 -208 -560 2 c-308 1
-565 2 -570 3 -6 1 -10 76 -10 206 l0 205 778 0 779 0 -208 -208z m387 -748
c0 -390 0 -725 -1 -745 l0 -36 -208 0 -207 0 0 542 0 542 205 205 c113 113
206 205 208 203 2 -1 3 -322 3 -711z m-1170 -36 c-189 -188 -345 -338 -349
-332 -138 190 -205 377 -216 606 -2 32 -1 60 2 63 3 3 208 5 455 5 l450 0
-342 -342z m522 -316 c0 -225 -3 -414 -7 -421 -9 -14 -138 -7 -241 13 -99 19
-250 80 -340 137 l-65 41 323 323 c177 177 324 321 326 319 2 -1 3 -187 4
-412z"/>
</g>
</svg>
